<svg xmlns="http://www.w3.org/2000/svg" viewBox="0 0 128 128" width="128" height="128" id="hero_run_up_f4">
  <defs>
    <filter id="blur"><feGaussianBlur stdDeviation="4" /></filter>
    <radialGradient id="headGradB" cx="50%" cy="55%" r="55%" fx="50%" fy="55%">
      <stop offset="0%" stop-color="#F5D0A9" />
      <stop offset="100%" stop-color="#D4A574" />
    </radialGradient>
    <radialGradient id="hairGradB" cx="45%" cy="30%" r="65%" fx="45%" fy="30%">
      <stop offset="0%" stop-color="#4A4A4A" />
      <stop offset="50%" stop-color="#2C2C2C" />
      <stop offset="100%" stop-color="#1A1A1A" />
    </radialGradient>
    <linearGradient id="bodyGradB" x1="0%" y1="0%" x2="0%" y2="100%">
      <stop offset="0%" stop-color="#F5D0A9" />
      <stop offset="100%" stop-color="#D4A574" />
    </linearGradient>
    <linearGradient id="pantsGradB" x1="0%" y1="0%" x2="0%" y2="100%">
      <stop offset="0%" stop-color="#795548" />
      <stop offset="50%" stop-color="#5D4037" />
      <stop offset="100%" stop-color="#3E2723" />
    </linearGradient>

  </defs>
    <ellipse cx="64" cy="120" rx="13.921539030917348" ry="3.480384757729337" fill="#000000" opacity="0.12" />
    <!-- Legs (back) -->
    <line x1="59" y1="94.31125046262035" x2="54.66987298107781" y2="100.57919965505147" stroke="#1A1A1A" stroke-width="8" stroke-linecap="round" />
    <line x1="59" y1="94.31125046262035" x2="54.66987298107781" y2="100.57919965505147" stroke="#F5D0A9" stroke-width="5" stroke-linecap="round" />
    <ellipse cx="54.66987298107781" cy="101.57919965505147" rx="3" ry="1.75" fill="#D4A574" stroke="#1A1A1A" stroke-width="1.8" />
    <line x1="69" y1="94.31125046262035" x2="73.3301270189222" y2="100.57919965505147" stroke="#1A1A1A" stroke-width="8" stroke-linecap="round" />
    <line x1="69" y1="94.31125046262035" x2="73.3301270189222" y2="100.57919965505147" stroke="#F5D0A9" stroke-width="5" stroke-linecap="round" />
    <ellipse cx="73.3301270189222" cy="101.57919965505147" rx="3" ry="1.75" fill="#D4A574" stroke="#1A1A1A" stroke-width="1.8" />
    <!-- Torso (back) -->
    <path d="M49 72.70096189432334 Q 47 79.70096189432334, 50 86.70096189432334 Q 64 89.70096189432334, 78 86.70096189432334 Q 81 79.70096189432334, 79 72.70096189432334 Z" fill="url(#bodyGradB)" stroke="#1A1A1A" stroke-width="3" />
    <line x1="64" y1="75.70096189432334" x2="64" y2="84.70096189432334" stroke="#D4A574" stroke-width="1" opacity="0.2" stroke-linecap="round" />
    <path d="M50 84.70096189432334 L49 94.70096189432334 Q 62 96.70096189432334, 64 93.70096189432334 Q 66 96.70096189432334, 79 94.70096189432334 L78 84.70096189432334 Z" fill="url(#pantsGradB)" stroke="#1A1A1A" stroke-width="3" />
    <line x1="51" y1="85.70096189432334" x2="77" y2="85.70096189432334" stroke="#3E2723" stroke-width="1.5" stroke-linecap="round" />
    <!-- Arms (back) -->
    <line x1="47" y1="75.70096189432334" x2="50.46410161513775" y2="83.0081415712958" stroke="#1A1A1A" stroke-width="8" stroke-linecap="round" />
    <line x1="47" y1="75.70096189432334" x2="50.46410161513775" y2="83.0081415712958" stroke="#F5D0A9" stroke-width="5" stroke-linecap="round" />
    <circle cx="50.46410161513775" cy="83.0081415712958" r="2.25" fill="#F5D0A9" stroke="#1A1A1A" stroke-width="2" />
    <line x1="81" y1="75.70096189432334" x2="77.53589838486225" y2="83.0081415712958" stroke="#1A1A1A" stroke-width="8" stroke-linecap="round" />
    <line x1="81" y1="75.70096189432334" x2="77.53589838486225" y2="83.0081415712958" stroke="#F5D0A9" stroke-width="5" stroke-linecap="round" />
    <circle cx="77.53589838486225" cy="83.0081415712958" r="2.25" fill="#F5D0A9" stroke="#1A1A1A" stroke-width="2" />
    <ellipse cx="26.532" cy="44.170288568297" rx="5.32" ry="7.6000000000000005" fill="url(#headGradB)" stroke="#1A1A1A" stroke-width="3.5" />
    <ellipse cx="101.468" cy="44.170288568297" rx="5.32" ry="7.6000000000000005" fill="url(#headGradB)" stroke="#1A1A1A" stroke-width="3.5" />
    <rect x="26" y="6.1702885682970035" width="76" height="66.88" rx="26.599999999999998" ry="26.599999999999998" fill="url(#headGradB)" stroke="#1A1A1A" stroke-width="3.5" />
    <path d="M39.3 16.810288568297 Q 37.400000000000006 8.170288568297003, 52.6 7.1702885682970035 Q 64 5.1702885682970035, 75.4 7.1702885682970035 Q 90.6 8.170288568297003, 88.7 16.810288568297 Q 79.2 22.510288568297, 64 23.650288568297 Q 48.8 22.510288568297, 39.3 16.810288568297 Z" fill="url(#hairGradB)" stroke="#1A1A1A" stroke-width="2.5" />
    <path d="M65.9 14.682288568296999 Q 48.34400000000001 11.490288568297, 53.132000000000005 0.3182885682969996 Q 57.92000000000001 -9.257711431703001, 66.69800000000001 -4.469711431703 Q 75.476 -10.055711431703, 80.26400000000001 1.116288568297 Q 83.456 11.490288568297, 70.688 18.672288568297 Q 68.29400000000001 17.076288568297, 65.9 14.682288568296999 Z" fill="url(#hairGradB)" stroke="#1A1A1A" stroke-width="3.5" />
    <path d="M66.69800000000001 -4.469711431703 Q 66.69800000000001 1.116288568297, 65.9 4.308288568297" fill="none" stroke="#1A1A1A" stroke-width="1.2" stroke-linecap="round" opacity="0.4" />

</svg>