<svg xmlns="http://www.w3.org/2000/svg" viewBox="0 0 128 128" width="128" height="128" id="hero_run_right_f0">
  <defs>
    <filter id="blur"><feGaussianBlur stdDeviation="4" /></filter>
    <radialGradient id="headGradS" cx="35%" cy="40%" r="55%" fx="35%" fy="40%">
      <stop offset="0%" stop-color="#FFE4C4" />
      <stop offset="50%" stop-color="#F5D0A9" />
      <stop offset="100%" stop-color="#D4A574" />
    </radialGradient>
    <radialGradient id="hairGradS" cx="45%" cy="30%" r="65%" fx="45%" fy="30%">
      <stop offset="0%" stop-color="#4A4A4A" />
      <stop offset="50%" stop-color="#2C2C2C" />
      <stop offset="100%" stop-color="#1A1A1A" />
    </radialGradient>
    <linearGradient id="bodyGradS" x1="0%" y1="0%" x2="0%" y2="100%">
      <stop offset="0%" stop-color="#FFE4C4" />
      <stop offset="50%" stop-color="#F5D0A9" />
      <stop offset="100%" stop-color="#D4A574" />
    </linearGradient>
    <linearGradient id="pantsGradS" x1="0%" y1="0%" x2="0%" y2="100%">
      <stop offset="0%" stop-color="#795548" />
      <stop offset="50%" stop-color="#5D4037" />
      <stop offset="100%" stop-color="#3E2723" />
    </linearGradient>

  </defs>
  <g transform="translate(128, 0) scale(-1, 1)">
    <ellipse cx="64" cy="120" rx="14" ry="3.5" fill="#000000" opacity="0.12" />
    <!-- Legs (side) -->
    <line x1="64" y1="96" x2="64" y2="104" stroke="#1A1A1A" stroke-width="8" stroke-linecap="round" />
    <line x1="64" y1="96" x2="64" y2="104" stroke="#D4A574" stroke-width="5" stroke-linecap="round" />
    <ellipse cx="64" cy="105" rx="3.5" ry="1.5" fill="#D4A574" stroke="#1A1A1A" stroke-width="1.8" />
    <!-- Back arm -->
    <line x1="64" y1="77" x2="64" y2="86" stroke="#1A1A1A" stroke-width="8" stroke-linecap="round" />
    <line x1="64" y1="77" x2="64" y2="86" stroke="#D4A574" stroke-width="5" stroke-linecap="round" />
    <circle cx="64" cy="86" r="2.25" fill="#D4A574" stroke="#1A1A1A" stroke-width="2" />
    <!-- Torso (side) -->
    <path d="M54 74 Q 53 81, 55 88 Q 64 90, 73 88 Q 75 81, 74 74 Z" fill="url(#bodyGradS)" stroke="#1A1A1A" stroke-width="3" />
    <path d="M55 86 L54 96 Q 64 97, 74 96 L73 86 Z" fill="url(#pantsGradS)" stroke="#1A1A1A" stroke-width="3" />
    <line x1="56" y1="87" x2="72" y2="87" stroke="#3E2723" stroke-width="1.5" stroke-linecap="round" />
    <!-- Front leg -->
    <line x1="64" y1="96" x2="64" y2="104" stroke="#1A1A1A" stroke-width="8" stroke-linecap="round" />
    <line x1="64" y1="96" x2="64" y2="104" stroke="#F5D0A9" stroke-width="5" stroke-linecap="round" />
    <ellipse cx="64" cy="105" rx="3.5" ry="1.5" fill="#D4A574" stroke="#1A1A1A" stroke-width="1.8" />
    <!-- Front arm -->
    <line x1="64" y1="77" x2="64" y2="86" stroke="#1A1A1A" stroke-width="8" stroke-linecap="round" />
    <line x1="64" y1="77" x2="64" y2="86" stroke="#F5D0A9" stroke-width="5" stroke-linecap="round" />
    <circle cx="64" cy="86" r="2.25" fill="#F5D0A9" stroke="#1A1A1A" stroke-width="2" />
    <!-- Ear (side) -->
    <ellipse cx="94.39999999999999" cy="43.8" rx="4.94" ry="6.84" fill="url(#headGradS)" stroke="#1A1A1A" stroke-width="3.5" />
    <ellipse cx="94.39999999999999" cy="43.8" rx="2.28" ry="3.8000000000000003" fill="#D4A574" opacity="0.25" />
    <rect x="32.84" y="6.560000000000002" width="62.31999999999999" height="66.88" rx="24.7" ry="24.7" fill="url(#headGradS)" stroke="#1A1A1A" stroke-width="3.5" />
    <!-- Hair (side) -->
    <path d="M70.232 13.970000000000002 Q 54.652 5.560000000000002, 39.072 19.099999999999998 Q 48.42 13.400000000000002, 70.232 13.970000000000002 Z" fill="url(#hairGradS)" stroke="#1A1A1A" stroke-width="2.5" />
    <path d="M65.9 14.007999999999997 Q 51.46000000000001 11.119999999999997, 55.79200000000001 1.7339999999999987 Q 60.12400000000001 -6.208, 66.622 -1.8760000000000012 Q 73.12 -6.9300000000000015, 77.452 2.4559999999999986 Q 80.34 11.119999999999997, 69.51 16.174 Q 67.6328 15.163199999999998, 65.9 14.007999999999997 Z" fill="url(#hairGradS)" stroke="#1A1A1A" stroke-width="3.5" />
    <ellipse cx="56.21" cy="43.8" rx="5.7" ry="6.84" fill="#1A1A1A" />
    <ellipse cx="57.635" cy="41.748" rx="1.71" ry="1.71" fill="#FFFFFF" />
    <path d="M34.84 45.6 Q 31.840000000000003 47.6, 34.84 49.6" fill="none" stroke="#D4A574" stroke-width="1.5" stroke-linecap="round" opacity="0.4" />
    <ellipse cx="53.094" cy="52.54" rx="3.8000000000000003" ry="2.28" fill="#F48FB1" opacity="0.5" />
    <path d="M57.046 55.96 Q 59.326 58.24, 61.606 55.96" fill="none" stroke="#1A1A1A" stroke-width="2" stroke-linecap="round" />
  </g>

</svg>