<svg xmlns="http://www.w3.org/2000/svg" viewBox="0 0 128 128" width="128" height="128" id="hero_run_down_f4">
  <defs>
    <filter id="blur"><feGaussianBlur stdDeviation="4" /></filter>
    <linearGradient id="bodyGrad" x1="0%" y1="0%" x2="0%" y2="100%">
      <stop offset="0%" stop-color="#FFE4C4" />
      <stop offset="50%" stop-color="#F5D0A9" />
      <stop offset="100%" stop-color="#D4A574" />
    </linearGradient>
    <linearGradient id="pantsGrad" x1="0%" y1="0%" x2="0%" y2="100%">
      <stop offset="0%" stop-color="#795548" />
      <stop offset="50%" stop-color="#5D4037" />
      <stop offset="100%" stop-color="#3E2723" />
    </linearGradient>
    <radialGradient id="headGrad" cx="48%" cy="42%" r="58%" fx="48%" fy="42%">
      <stop offset="0%" stop-color="#FFE4C4" />
      <stop offset="50%" stop-color="#F5D0A9" />
      <stop offset="100%" stop-color="#D4A574" />
    </radialGradient>
    <radialGradient id="headGradHair" cx="45%" cy="30%" r="65%" fx="45%" fy="30%">
      <stop offset="0%" stop-color="#4A4A4A" />
      <stop offset="50%" stop-color="#2C2C2C" />
      <stop offset="100%" stop-color="#1A1A1A" />
    </radialGradient>

  </defs>
    <ellipse cx="64" cy="120" rx="13.921539030917348" ry="3.480384757729337" fill="#000000" opacity="0.12" />
    <!-- Legs -->
    <line x1="59" y1="96.31125046262035" x2="54.66987298107781" y2="103.01221235694369" stroke="#1A1A1A" stroke-width="8" stroke-linecap="round" />
    <line x1="59" y1="96.31125046262035" x2="54.66987298107781" y2="103.01221235694369" stroke="#F5D0A9" stroke-width="5" stroke-linecap="round" />
    <ellipse cx="54.66987298107781" cy="104.01221235694369" rx="3" ry="1.75" fill="#D4A574" stroke="#1A1A1A" stroke-width="1.8" />
    <line x1="69" y1="96.31125046262035" x2="73.3301270189222" y2="103.01221235694369" stroke="#1A1A1A" stroke-width="8" stroke-linecap="round" />
    <line x1="69" y1="96.31125046262035" x2="73.3301270189222" y2="103.01221235694369" stroke="#F5D0A9" stroke-width="5" stroke-linecap="round" />
    <ellipse cx="73.3301270189222" cy="104.01221235694369" rx="3" ry="1.75" fill="#D4A574" stroke="#1A1A1A" stroke-width="1.8" />
    <!-- Torso -->
    <path d="
      M49 72.70096189432334
      Q 47 79.70096189432334, 50 86.70096189432334
      Q 64 89.70096189432334, 78 86.70096189432334
      Q 81 79.70096189432334, 79 72.70096189432334
      Z"
      fill="url(#bodyGrad)" stroke="#1A1A1A" stroke-width="3" />
    <!-- Pants -->
    <path d="
      M50 84.70096189432334
      L49 94.70096189432334
      Q 62 96.70096189432334, 64 93.70096189432334
      Q 66 96.70096189432334, 79 94.70096189432334
      L78 84.70096189432334
      Z"
      fill="url(#pantsGrad)" stroke="#1A1A1A" stroke-width="3" />
    <line x1="51" y1="85.70096189432334" x2="77" y2="85.70096189432334" stroke="#3E2723" stroke-width="1.5" stroke-linecap="round" />
    <!-- Arms -->
    <line x1="47" y1="75.70096189432334" x2="50.46410161513775" y2="83.0081415712958" stroke="#1A1A1A" stroke-width="8" stroke-linecap="round" />
    <line x1="47" y1="75.70096189432334" x2="50.46410161513775" y2="83.0081415712958" stroke="#F5D0A9" stroke-width="5" stroke-linecap="round" />
    <circle cx="50.46410161513775" cy="83.0081415712958" r="2.25" fill="#F5D0A9" stroke="#1A1A1A" stroke-width="2" />
    <line x1="81" y1="75.70096189432334" x2="77.53589838486225" y2="83.0081415712958" stroke="#1A1A1A" stroke-width="8" stroke-linecap="round" />
    <line x1="81" y1="75.70096189432334" x2="77.53589838486225" y2="83.0081415712958" stroke="#F5D0A9" stroke-width="5" stroke-linecap="round" />
    <circle cx="77.53589838486225" cy="83.0081415712958" r="2.25" fill="#F5D0A9" stroke="#1A1A1A" stroke-width="2" />
    <!-- Ears -->
    <ellipse cx="27.823999999999998" cy="44.170288568297" rx="6.08" ry="8.36" fill="url(#headGrad)" stroke="#1A1A1A" stroke-width="3.5" />
    <ellipse cx="27.823999999999998" cy="44.170288568297" rx="2.736" ry="4.598" fill="#D4A574" opacity="0.25" />
    <ellipse cx="100.176" cy="44.170288568297" rx="6.08" ry="8.36" fill="url(#headGrad)" stroke="#1A1A1A" stroke-width="3.5" />
    <ellipse cx="100.176" cy="44.170288568297" rx="2.736" ry="4.598" fill="#D4A574" opacity="0.25" />
    <!-- Head -->
    <rect x="26" y="6.1702885682970035" width="76" height="66.88" rx="26.599999999999998" ry="26.599999999999998" fill="url(#headGrad)" stroke="#1A1A1A" stroke-width="3.5" />
    <!-- Hair: quả đào -->
    <path d="M45 11.110288568297001
      Q 56.4 5.410288568296998, 65.9 6.1702885682970035
      Q 75.4 7.310288568297004, 83 13.010288568297003
      Q 75.4 9.210288568296999, 65.9 8.450288568297005
      Q 56.4 7.690288568297003, 45 11.110288568297001 Z"
      fill="url(#headGradHair)" opacity="0.4" />
    <path d="
      M65.9 14.682288568296999
      Q 48.34400000000001 11.490288568297,
        53.132000000000005 0.3182885682969996
      Q 57.92000000000001 -9.257711431703001,
        66.69800000000001 -4.469711431703
      Q 75.476 -10.055711431703,
        80.26400000000001 1.116288568297
      Q 83.456 11.490288568297,
        70.688 18.672288568297
      Q 68.29400000000001 17.076288568297,
        65.9 14.682288568296999 Z"
      fill="url(#headGradHair)" stroke="#1A1A1A" stroke-width="3.5" />
    <path d="M66.69800000000001 -4.469711431703
      Q 66.69800000000001 1.116288568297,
        65.9 4.308288568297"
      fill="none" stroke="#1A1A1A" stroke-width="1.2" stroke-linecap="round" opacity="0.4" />
    <ellipse cx="61.11200000000001" cy="1.9142885682969997" rx="3.192" ry="4.4688" fill="#4A4A4A" opacity="0.2" transform="rotate(-15 61.11200000000001 1.9142885682969997)" />
    <!-- Eyes -->
    <ellipse cx="51.46" cy="44.170288568297" rx="6.460000000000001" ry="7.6000000000000005" fill="#1A1A1A" />
    <ellipse cx="53.398" cy="41.738288568297" rx="2.0672" ry="2.1280000000000006" fill="#FFFFFF" />
    <ellipse cx="76.54" cy="44.170288568297" rx="6.460000000000001" ry="7.6000000000000005" fill="#1A1A1A" />
    <ellipse cx="78.47800000000001" cy="41.738288568297" rx="2.0672" ry="2.1280000000000006" fill="#FFFFFF" />
    <!-- Blush -->
    <ellipse cx="45.760000000000005" cy="54.050288568297006" rx="4.56" ry="2.66" fill="#F48FB1" opacity="0.5" />
    <ellipse cx="82.24" cy="54.050288568297006" rx="4.56" ry="2.66" fill="#F48FB1" opacity="0.5" />
    <!-- Mouth -->
    <path d="M53.36 58.610288568297 Q 64 77.002288568297, 74.64 58.610288568297 Z" fill="#1A1A1A" />
    <path d="M55.36 59.610288568297 Q 64 75.330288568297, 72.64 59.610288568297 Z" fill="#B71C1C" />
    <path d="M56.36 59.610288568297 Q 64 64.462288568297, 71.64 59.610288568297 Z" fill="#FFFFFF" />

</svg>