<svg xmlns="http://www.w3.org/2000/svg" viewBox="0 0 128 128" width="128" height="128" id="hero_run_up_f0">
  <defs>
    <filter id="blur"><feGaussianBlur stdDeviation="4" /></filter>
    <radialGradient id="headGradB" cx="50%" cy="55%" r="55%" fx="50%" fy="55%">
      <stop offset="0%" stop-color="#F5D0A9" />
      <stop offset="100%" stop-color="#D4A574" />
    </radialGradient>
    <radialGradient id="hairGradB" cx="45%" cy="30%" r="65%" fx="45%" fy="30%">
      <stop offset="0%" stop-color="#4A4A4A" />
      <stop offset="50%" stop-color="#2C2C2C" />
      <stop offset="100%" stop-color="#1A1A1A" />
    </radialGradient>
    <linearGradient id="bodyGradB" x1="0%" y1="0%" x2="0%" y2="100%">
      <stop offset="0%" stop-color="#F5D0A9" />
      <stop offset="100%" stop-color="#D4A574" />
    </linearGradient>
    <linearGradient id="pantsGradB" x1="0%" y1="0%" x2="0%" y2="100%">
      <stop offset="0%" stop-color="#795548" />
      <stop offset="50%" stop-color="#5D4037" />
      <stop offset="100%" stop-color="#3E2723" />
    </linearGradient>

  </defs>
    <ellipse cx="64" cy="120" rx="16" ry="4" fill="#000000" opacity="0.12" />
    <!-- Legs (back) -->
    <line x1="59" y1="96" x2="59" y2="104" stroke="#1A1A1A" stroke-width="8" stroke-linecap="round" />
    <line x1="59" y1="96" x2="59" y2="104" stroke="#F5D0A9" stroke-width="5" stroke-linecap="round" />
    <ellipse cx="59" cy="105" rx="3" ry="1.75" fill="#D4A574" stroke="#1A1A1A" stroke-width="1.8" />
    <line x1="69" y1="96" x2="69" y2="104" stroke="#1A1A1A" stroke-width="8" stroke-linecap="round" />
    <line x1="69" y1="96" x2="69" y2="104" stroke="#F5D0A9" stroke-width="5" stroke-linecap="round" />
    <ellipse cx="69" cy="105" rx="3" ry="1.75" fill="#D4A574" stroke="#1A1A1A" stroke-width="1.8" />
    <!-- Torso (back) -->
    <path d="M49 74 Q 47 81, 50 88 Q 64 91, 78 88 Q 81 81, 79 74 Z" fill="url(#bodyGradB)" stroke="#1A1A1A" stroke-width="3" />
    <line x1="64" y1="77" x2="64" y2="86" stroke="#D4A574" stroke-width="1" opacity="0.2" stroke-linecap="round" />
    <path d="M50 86 L49 96 Q 62 98, 64 95 Q 66 98, 79 96 L78 86 Z" fill="url(#pantsGradB)" stroke="#1A1A1A" stroke-width="3" />
    <line x1="51" y1="87" x2="77" y2="87" stroke="#3E2723" stroke-width="1.5" stroke-linecap="round" />
    <!-- Arms (back) -->
    <line x1="47" y1="77" x2="47" y2="85" stroke="#1A1A1A" stroke-width="8" stroke-linecap="round" />
    <line x1="47" y1="77" x2="47" y2="85" stroke="#F5D0A9" stroke-width="5" stroke-linecap="round" />
    <circle cx="47" cy="85" r="2.25" fill="#F5D0A9" stroke="#1A1A1A" stroke-width="2" />
    <line x1="81" y1="77" x2="81" y2="85" stroke="#1A1A1A" stroke-width="8" stroke-linecap="round" />
    <line x1="81" y1="77" x2="81" y2="85" stroke="#F5D0A9" stroke-width="5" stroke-linecap="round" />
    <circle cx="81" cy="85" r="2.25" fill="#F5D0A9" stroke="#1A1A1A" stroke-width="2" />
    <ellipse cx="26.532" cy="44.56" rx="5.32" ry="7.6000000000000005" fill="url(#headGradB)" stroke="#1A1A1A" stroke-width="3.5" />
    <ellipse cx="101.468" cy="44.56" rx="5.32" ry="7.6000000000000005" fill="url(#headGradB)" stroke="#1A1A1A" stroke-width="3.5" />
    <rect x="26" y="6.560000000000002" width="76" height="66.88" rx="26.599999999999998" ry="26.599999999999998" fill="url(#headGradB)" stroke="#1A1A1A" stroke-width="3.5" />
    <path d="M39.3 17.2 Q 37.400000000000006 8.560000000000002, 52.6 7.560000000000002 Q 64 5.560000000000002, 75.4 7.560000000000002 Q 90.6 8.560000000000002, 88.7 17.2 Q 79.2 22.9, 64 24.04 Q 48.8 22.9, 39.3 17.2 Z" fill="url(#hairGradB)" stroke="#1A1A1A" stroke-width="2.5" />
    <path d="M65.9 15.071999999999997 Q 48.34400000000001 11.879999999999999, 53.132000000000005 0.7079999999999984 Q 57.92000000000001 -8.868000000000002, 66.69800000000001 -4.080000000000001 Q 75.476 -9.666, 80.26400000000001 1.505999999999999 Q 83.456 11.879999999999999, 70.688 19.061999999999998 Q 68.29400000000001 17.465999999999998, 65.9 15.071999999999997 Z" fill="url(#hairGradB)" stroke="#1A1A1A" stroke-width="3.5" />
    <path d="M66.69800000000001 -4.080000000000001 Q 66.69800000000001 1.505999999999999, 65.9 4.697999999999999" fill="none" stroke="#1A1A1A" stroke-width="1.2" stroke-linecap="round" opacity="0.4" />

</svg>