<svg xmlns="http://www.w3.org/2000/svg" viewBox="0 0 128 128" width="128" height="128" id="hero_f3">
  <defs>
    <filter id="blur"><feGaussianBlur stdDeviation="4" /></filter>
    <linearGradient id="bodyGrad" x1="0%" y1="0%" x2="0%" y2="100%">
      <stop offset="0%" stop-color="#FFE4C4" />
      <stop offset="50%" stop-color="#F5D0A9" />
      <stop offset="100%" stop-color="#D4A574" />
    </linearGradient>
    <linearGradient id="pantsGrad" x1="0%" y1="0%" x2="0%" y2="100%">
      <stop offset="0%" stop-color="#795548" />
      <stop offset="50%" stop-color="#5D4037" />
      <stop offset="100%" stop-color="#3E2723" />
    </linearGradient>
    <radialGradient id="headGrad" cx="45%" cy="35%" r="65%" fx="45%" fy="35%">
      <stop offset="0%" stop-color="#FFE4C4" />
      <stop offset="50%" stop-color="#F5D0A9" />
      <stop offset="100%" stop-color="#D4A574" />
    </radialGradient>
    <radialGradient id="headGradHair" cx="45%" cy="30%" r="65%" fx="45%" fy="30%">
      <stop offset="0%" stop-color="#4A4A4A" />
      <stop offset="50%" stop-color="#2C2C2C" />
      <stop offset="100%" stop-color="#1A1A1A" />
    </radialGradient>

  </defs>
    <ellipse cx="64" cy="108" rx="18" ry="5" fill="#000000" opacity="0.12" />
    <!-- Legs -->
    <line x1="58" y1="79.75" x2="58" y2="93.75"
        stroke="#2C1810" stroke-width="8.5" stroke-linecap="round" />
    <line x1="58" y1="79.75" x2="58" y2="93.75"
        stroke="#F5D0A9" stroke-width="6" stroke-linecap="round" />
    <ellipse cx="58" cy="94.75" rx="4.199999999999999" ry="2.7" fill="#D4A574" stroke="#2C1810" stroke-width="1.8" />
    <line x1="70" y1="79.75" x2="70" y2="93.75"
        stroke="#2C1810" stroke-width="8.5" stroke-linecap="round" />
    <line x1="70" y1="79.75" x2="70" y2="93.75"
        stroke="#F5D0A9" stroke-width="6" stroke-linecap="round" />
    <ellipse cx="70" cy="94.75" rx="4.199999999999999" ry="2.7" fill="#D4A574" stroke="#2C1810" stroke-width="1.8" />
    <!-- Torso -->
    <path d="M55 56.5
      Q 53 64.5, 56 72.5
      Q 64 76.5, 72 72.5
      Q 75 64.5, 73 56.5 Z"
      fill="url(#bodyGrad)" stroke="#2C1810" stroke-width="2" stroke-linecap="round" stroke-linejoin="round" />
    <circle cx="60" cy="62.5" r="0.8" fill="#D4A574" opacity="0.4" />
    <circle cx="68" cy="62.5" r="0.8" fill="#D4A574" opacity="0.4" />
    <!-- Pants -->
    <path d="M56 70.5
      L55 80.5
      Q 61 82.5, 64 79.5
      Q 67 82.5, 73 80.5
      L72 70.5 Z"
      fill="url(#pantsGrad)" stroke="#2C1810" stroke-width="2" stroke-linecap="round" stroke-linejoin="round" />
    <line x1="57" y1="71.5" x2="71" y2="71.5" stroke="#3E2723" stroke-width="1.5" stroke-linecap="round" />
    <!-- Arms -->
    <line x1="46" y1="59.5" x2="41" y2="74" stroke="#2C1810" stroke-width="8.5" stroke-linecap="round" />
    <line x1="46" y1="59.5" x2="41" y2="74" stroke="#F5D0A9" stroke-width="6" stroke-linecap="round" />
    <circle cx="41" cy="74" r="3.3000000000000003" fill="#F5D0A9" stroke="#2C1810" stroke-width="2" />
    <line x1="82" y1="59.5" x2="87" y2="77" stroke="#2C1810" stroke-width="8.5" stroke-linecap="round" />
    <line x1="82" y1="59.5" x2="87" y2="77" stroke="#F5D0A9" stroke-width="6" stroke-linecap="round" />
    <circle cx="87" cy="77" r="3.3000000000000003" fill="#F5D0A9" stroke="#2C1810" stroke-width="2" />
    <!-- Head -->
    <ellipse cx="64" cy="33.55" rx="26" ry="24.7" fill="url(#headGrad)" stroke="#2C1810" stroke-width="2.5" stroke-linecap="round" stroke-linejoin="round" />
    <!-- Hair: quả đào chú tiểu -->
    <path d="M52.3 13.269999999999996
      Q 58.8 9.629999999999995, 65.3 10.149999999999995
      Q 71.8 10.669999999999998, 75.7 14.829999999999998
      Q 71.8 12.229999999999997, 65.3 12.229999999999997
      Q 58.8 11.709999999999997, 52.3 13.269999999999996 Z"
      fill="url(#headGradHair)" opacity="0.5" />
    <path d="
      M65.3 15.609999999999996
      Q 51.571999999999996 13.737999999999996,
        54.69199999999999 4.377999999999997
      Q 58.43599999999999 -3.110000000000003,
        65.92399999999999 0.009999999999996234
      Q 73.41199999999999 -3.7340000000000053,
        77.15599999999999 5.001999999999996
      Q 79.652 13.113999999999997,
        69.66799999999999 18.729999999999997
      Q 67.172 17.482,
        65.3 15.609999999999996 Z"
      fill="url(#headGradHair)" stroke="#2C1810" stroke-width="2.5" stroke-linecap="round" stroke-linejoin="round" />
    <path d="M65.92399999999999 0.009999999999996234
      Q 65.92399999999999 3.753999999999996,
        65.3 6.873999999999997"
      fill="none" stroke="#1A1A1A" stroke-width="1.2" stroke-linecap="round" opacity="0.5" />
    <ellipse cx="62.18" cy="6.2499999999999964" rx="2.7456" ry="3.7439999999999998" fill="#4A4A4A" opacity="0.25" transform="rotate(-15 62.18 6.2499999999999964)" />
    <!-- Eyes -->
    <ellipse cx="55.68" cy="34.849999999999994" rx="5.4" ry="6" fill="#FFFFFF" stroke="#2C1810" stroke-width="1.5" />
    <ellipse cx="55.68" cy="34.849999999999994" rx="3.3000000000000003" ry="3.9000000000000004" fill="#1A1A1A" />
    <ellipse cx="57.68" cy="32.849999999999994" rx="2.2" ry="2.5" fill="#FFFFFF" />
    <ellipse cx="54.18" cy="36.349999999999994" rx="1.2" ry="1.2" fill="#FFFFFF" opacity="0.6" />
    <ellipse cx="72.32" cy="34.849999999999994" rx="5.4" ry="6" fill="#FFFFFF" stroke="#2C1810" stroke-width="1.5" />
    <ellipse cx="72.32" cy="34.849999999999994" rx="3.3000000000000003" ry="3.9000000000000004" fill="#1A1A1A" />
    <ellipse cx="74.32" cy="32.849999999999994" rx="2.2" ry="2.5" fill="#FFFFFF" />
    <ellipse cx="70.82" cy="36.349999999999994" rx="1.2" ry="1.2" fill="#FFFFFF" opacity="0.6" />
    <!-- Mouth -->
    <path d="M60 43.43 Q 64 49.43, 68 43.43" fill="#E57373" stroke="#2C1810" stroke-width="1.5" stroke-linecap="round" />
    <!-- Blush -->
    <ellipse cx="52.3" cy="40.05" rx="5" ry="3.5" fill="#FFB6C1" opacity="0.45" />
    <ellipse cx="75.7" cy="40.05" rx="5" ry="3.5" fill="#FFB6C1" opacity="0.45" />

</svg>