<svg xmlns="http://www.w3.org/2000/svg" viewBox="0 0 128 128" width="128" height="128" id="hero_f0">
  <defs>
    <filter id="blur"><feGaussianBlur stdDeviation="4" /></filter>
    <linearGradient id="sashGrad" x1="0%" y1="0%" x2="100%" y2="100%">
      <stop offset="0%" stop-color="#FFB300" />
      <stop offset="50%" stop-color="#FF8F00" />
      <stop offset="100%" stop-color="#E65100" />
    </linearGradient>
    <radialGradient id="headGrad" cx="48%" cy="42%" r="58%" fx="48%" fy="42%">
      <stop offset="0%" stop-color="#FFE4C4" />
      <stop offset="50%" stop-color="#F5D0A9" />
      <stop offset="100%" stop-color="#D4A574" />
    </radialGradient>
    <radialGradient id="headGradHair" cx="55%" cy="30%" r="60%" fx="55%" fy="30%">
      <stop offset="0%" stop-color="#B0B0B0" />
      <stop offset="50%" stop-color="#808080" />
      <stop offset="100%" stop-color="#606060" />
    </radialGradient>

  </defs>
    <ellipse cx="64" cy="120" rx="16" ry="4" fill="#000000" opacity="0.12" />
    <!-- Legs -->
    <line x1="59" y1="98" x2="59" y2="106" stroke="#1A1A1A" stroke-width="8" stroke-linecap="round" />
    <line x1="59" y1="98" x2="59" y2="106" stroke="#2C2C2C" stroke-width="5" stroke-linecap="round" />
    <ellipse cx="59" cy="107" rx="3" ry="1.75" fill="#D4A574" stroke="#1A1A1A" stroke-width="1.8" />
    <line x1="69" y1="98" x2="69" y2="106" stroke="#1A1A1A" stroke-width="8" stroke-linecap="round" />
    <line x1="69" y1="98" x2="69" y2="106" stroke="#2C2C2C" stroke-width="5" stroke-linecap="round" />
    <ellipse cx="69" cy="107" rx="3" ry="1.75" fill="#D4A574" stroke="#1A1A1A" stroke-width="1.8" />
    <!-- Body robe -->
    <path d="
      M48 74
      Q 45 83, 49 92
      Q 64 95, 79 92
      Q 83 83, 80 74
      Z"
      fill="#2C2C2C" stroke="#1A1A1A" stroke-width="3" />
    <!-- Orange sash -->
    <path d="
      M50 75
      L77 83.9
      L77 90.9
      L50 82
      Z"
      fill="url(#sashGrad)" stroke="#1A1A1A" stroke-width="1.5" />
    <line x1="60" y1="80" x2="70" y2="86" stroke="#E65100" stroke-width="1" opacity="0.5" />
    <line x1="56" y1="82" x2="66" y2="88" stroke="#E65100" stroke-width="0.8" opacity="0.4" />
    <path d="
      M49 92
      Q 47 97, 51 100
      Q 64 102, 77 100
      Q 81 97, 79 92
      Z"
      fill="#2C2C2C" stroke="#1A1A1A" stroke-width="3" />
    <!-- Arms -->
    <line x1="47" y1="77" x2="44" y2="87" stroke="#1A1A1A" stroke-width="8" stroke-linecap="round" />
    <line x1="47" y1="77" x2="44" y2="87" stroke="#2C2C2C" stroke-width="5" stroke-linecap="round" />
    <circle cx="44" cy="87" r="2.25" fill="#F5D0A9" stroke="#1A1A1A" stroke-width="2" />
    <line x1="81" y1="77" x2="84" y2="87" stroke="#1A1A1A" stroke-width="8" stroke-linecap="round" />
    <line x1="81" y1="77" x2="84" y2="87" stroke="#2C2C2C" stroke-width="5" stroke-linecap="round" />
    <circle cx="84" cy="87" r="2.25" fill="#F5D0A9" stroke="#1A1A1A" stroke-width="2" />
    <!-- Ears -->
    <ellipse cx="27.823999999999998" cy="44.56" rx="6.08" ry="8.36" fill="url(#headGrad)" stroke="#1A1A1A" stroke-width="3.5" />
    <ellipse cx="27.823999999999998" cy="44.56" rx="2.736" ry="4.598" fill="#D4A574" opacity="0.25" />
    <ellipse cx="100.176" cy="44.56" rx="6.08" ry="8.36" fill="url(#headGrad)" stroke="#1A1A1A" stroke-width="3.5" />
    <ellipse cx="100.176" cy="44.56" rx="2.736" ry="4.598" fill="#D4A574" opacity="0.25" />
    <!-- Head -->
    <ellipse cx="64" cy="40" rx="38" ry="36.48" fill="url(#headGrad)" stroke="#1A1A1A" stroke-width="3.5" />
    <!-- Hair cap -->
    <path d="
      M27 34.3
      Q 26 21, 37.400000000000006 6.560000000000002
      Q 52.6 0.10000000000000142, 64 2.759999999999998
      Q 75.4 0.10000000000000142, 90.6 6.560000000000002
      Q 102 21, 101 34.3
      Z"
      fill="url(#headGradHair)" stroke="#1A1A1A" stroke-width="3.5" />
    <ellipse cx="71.6" cy="13.400000000000002" rx="5.7" ry="5.7" fill="#FFFFFF" opacity="0.55" />
    <!-- Eyes -->
    <ellipse cx="51.46" cy="44.56" rx="6.460000000000001" ry="7.6000000000000005" fill="#1A1A1A" />
    <ellipse cx="53.398" cy="42.128" rx="2.0672" ry="2.1280000000000006" fill="#FFFFFF" />
    <ellipse cx="76.54" cy="44.56" rx="6.460000000000001" ry="7.6000000000000005" fill="#1A1A1A" />
    <ellipse cx="78.47800000000001" cy="42.128" rx="2.0672" ry="2.1280000000000006" fill="#FFFFFF" />
    <!-- Blush -->
    <ellipse cx="45" cy="53.3" rx="5.32" ry="3.04" fill="#F48FB1" opacity="0.55" />
    <ellipse cx="83" cy="53.3" rx="5.32" ry="3.04" fill="#F48FB1" opacity="0.55" />
    <!-- Mouth -->
    <path d="M53.36 59 Q 64 77.392, 74.64 59 Z" fill="#1A1A1A" />
    <path d="M55.36 60 Q 64 75.72, 72.64 60 Z" fill="#B71C1C" />
    <path d="M56.36 60 Q 64 64.852, 71.64 60 Z" fill="#FFFFFF" />
    <ellipse cx="64" cy="70.704" rx="5.32" ry="3.762" fill="#E57373" />

</svg>