<svg xmlns="http://www.w3.org/2000/svg" viewBox="0 0 128 128" width="128" height="128" id="hero_f2">
  <defs>
    <filter id="blur"><feGaussianBlur stdDeviation="4" /></filter>
    <linearGradient id="bodyGrad" x1="0%" y1="0%" x2="0%" y2="100%">
      <stop offset="0%" stop-color="#FFE4C4" />
      <stop offset="50%" stop-color="#F5D0A9" />
      <stop offset="100%" stop-color="#D4A574" />
    </linearGradient>
    <linearGradient id="pantsGrad" x1="0%" y1="0%" x2="0%" y2="100%">
      <stop offset="0%" stop-color="#795548" />
      <stop offset="50%" stop-color="#5D4037" />
      <stop offset="100%" stop-color="#3E2723" />
    </linearGradient>
    <radialGradient id="headGrad" cx="45%" cy="35%" r="65%" fx="45%" fy="35%">
      <stop offset="0%" stop-color="#FFE4C4" />
      <stop offset="50%" stop-color="#F5D0A9" />
      <stop offset="100%" stop-color="#D4A574" />
    </radialGradient>
    <radialGradient id="headGradHair" cx="45%" cy="30%" r="65%" fx="45%" fy="30%">
      <stop offset="0%" stop-color="#4A4A4A" />
      <stop offset="50%" stop-color="#2C2C2C" />
      <stop offset="100%" stop-color="#1A1A1A" />
    </radialGradient>

  </defs>
    <ellipse cx="64" cy="108" rx="18" ry="5" fill="#000000" opacity="0.12" />
    <!-- Legs -->
    <line x1="58" y1="82" x2="58" y2="96"
        stroke="#2C1810" stroke-width="8.5" stroke-linecap="round" />
    <line x1="58" y1="82" x2="58" y2="96"
        stroke="#F5D0A9" stroke-width="6" stroke-linecap="round" />
    <ellipse cx="58" cy="97" rx="4.199999999999999" ry="2.7" fill="#D4A574" stroke="#2C1810" stroke-width="1.8" />
    <line x1="70" y1="82" x2="70" y2="96"
        stroke="#2C1810" stroke-width="8.5" stroke-linecap="round" />
    <line x1="70" y1="82" x2="70" y2="96"
        stroke="#F5D0A9" stroke-width="6" stroke-linecap="round" />
    <ellipse cx="70" cy="97" rx="4.199999999999999" ry="2.7" fill="#D4A574" stroke="#2C1810" stroke-width="1.8" />
    <!-- Torso -->
    <path d="M55 58
      Q 53 66, 56 74
      Q 64 78, 72 74
      Q 75 66, 73 58 Z"
      fill="url(#bodyGrad)" stroke="#2C1810" stroke-width="2" stroke-linecap="round" stroke-linejoin="round" />
    <circle cx="60" cy="64" r="0.8" fill="#D4A574" opacity="0.4" />
    <circle cx="68" cy="64" r="0.8" fill="#D4A574" opacity="0.4" />
    <!-- Pants -->
    <path d="M56 72
      L55 82
      Q 61 84, 64 81
      Q 67 84, 73 82
      L72 72 Z"
      fill="url(#pantsGrad)" stroke="#2C1810" stroke-width="2" stroke-linecap="round" stroke-linejoin="round" />
    <line x1="57" y1="73" x2="71" y2="73" stroke="#3E2723" stroke-width="1.5" stroke-linecap="round" />
    <!-- Arms -->
    <line x1="46" y1="61" x2="41" y2="77" stroke="#2C1810" stroke-width="8.5" stroke-linecap="round" />
    <line x1="46" y1="61" x2="41" y2="77" stroke="#F5D0A9" stroke-width="6" stroke-linecap="round" />
    <circle cx="41" cy="77" r="3.3000000000000003" fill="#F5D0A9" stroke="#2C1810" stroke-width="2" />
    <line x1="82" y1="61" x2="87" y2="77" stroke="#2C1810" stroke-width="8.5" stroke-linecap="round" />
    <line x1="82" y1="61" x2="87" y2="77" stroke="#F5D0A9" stroke-width="6" stroke-linecap="round" />
    <circle cx="87" cy="77" r="3.3000000000000003" fill="#F5D0A9" stroke="#2C1810" stroke-width="2" />
    <!-- Head -->
    <ellipse cx="64" cy="34" rx="26" ry="24.7" fill="url(#headGrad)" stroke="#2C1810" stroke-width="2.5" stroke-linecap="round" stroke-linejoin="round" />
    <!-- Hair: quả đào chú tiểu -->
    <path d="M52.3 13.719999999999999
      Q 58.8 10.079999999999998, 65.3 10.599999999999998
      Q 71.8 11.120000000000001, 75.7 15.280000000000001
      Q 71.8 12.68, 65.3 12.68
      Q 58.8 12.16, 52.3 13.719999999999999 Z"
      fill="url(#headGradHair)" opacity="0.5" />
    <path d="
      M65.3 16.06
      Q 51.571999999999996 14.187999999999999,
        54.69199999999999 4.827999999999999
      Q 58.43599999999999 -2.66,
        65.92399999999999 0.4599999999999991
      Q 73.41199999999999 -3.2840000000000025,
        77.15599999999999 5.451999999999999
      Q 79.652 13.564,
        69.66799999999999 19.18
      Q 67.172 17.932000000000002,
        65.3 16.06 Z"
      fill="url(#headGradHair)" stroke="#2C1810" stroke-width="2.5" stroke-linecap="round" stroke-linejoin="round" />
    <path d="M65.92399999999999 0.4599999999999991
      Q 65.92399999999999 4.203999999999999,
        65.3 7.324"
      fill="none" stroke="#1A1A1A" stroke-width="1.2" stroke-linecap="round" opacity="0.5" />
    <ellipse cx="62.18" cy="6.699999999999999" rx="2.7456" ry="3.7439999999999998" fill="#4A4A4A" opacity="0.25" transform="rotate(-15 62.18 6.699999999999999)" />
    <!-- Eyes -->
    <path d="M48.08 35.3 Q 53.08 38.3, 58.08 35.3" fill="none" stroke="#2C1810" stroke-width="2.5" stroke-linecap="round" />
    <path d="M69.92 35.3 Q 74.92 38.3, 79.92 35.3" fill="none" stroke="#2C1810" stroke-width="2.5" stroke-linecap="round" />
    <!-- Mouth -->
    <path d="M61 49.08 Q 64 53.08, 67 49.08" fill="none" stroke="#2C1810" stroke-width="1.8" stroke-linecap="round" />
    <!-- Blush -->
    <ellipse cx="52.3" cy="40.5" rx="5" ry="3.5" fill="#FFB6C1" opacity="0.45" />
    <ellipse cx="75.7" cy="40.5" rx="5" ry="3.5" fill="#FFB6C1" opacity="0.45" />

</svg>