<svg xmlns="http://www.w3.org/2000/svg" viewBox="0 0 128 128" width="128" height="128" id="hero_f1">
  <defs>
    <filter id="blur"><feGaussianBlur stdDeviation="4" /></filter>
    <linearGradient id="bodyGrad" x1="0%" y1="0%" x2="0%" y2="100%">
      <stop offset="0%" stop-color="#FFE4C4" />
      <stop offset="50%" stop-color="#F5D0A9" />
      <stop offset="100%" stop-color="#D4A574" />
    </linearGradient>
    <linearGradient id="pantsGrad" x1="0%" y1="0%" x2="0%" y2="100%">
      <stop offset="0%" stop-color="#795548" />
      <stop offset="50%" stop-color="#5D4037" />
      <stop offset="100%" stop-color="#3E2723" />
    </linearGradient>
    <radialGradient id="headGrad" cx="48%" cy="38%" r="60%" fx="48%" fy="38%">
      <stop offset="0%" stop-color="#FFE4C4" />
      <stop offset="50%" stop-color="#F5D0A9" />
      <stop offset="100%" stop-color="#D4A574" />
    </radialGradient>
    <radialGradient id="headGradHair" cx="45%" cy="30%" r="65%" fx="45%" fy="30%">
      <stop offset="0%" stop-color="#4A4A4A" />
      <stop offset="50%" stop-color="#2C2C2C" />
      <stop offset="100%" stop-color="#1A1A1A" />
    </radialGradient>

  </defs>
    <ellipse cx="64" cy="118" rx="16" ry="4" fill="#000000" opacity="0.12" />
    <!-- Legs -->
    <line x1="59" y1="91.95" x2="59" y2="101.95" stroke="#1A1A1A" stroke-width="8" stroke-linecap="round" />
    <line x1="59" y1="91.95" x2="59" y2="101.95" stroke="#F5D0A9" stroke-width="5" stroke-linecap="round" />
    <ellipse cx="59" cy="102.95" rx="3.25" ry="2" fill="#D4A574" stroke="#1A1A1A" stroke-width="2" />
    <line x1="69" y1="91.95" x2="69" y2="101.95" stroke="#1A1A1A" stroke-width="8" stroke-linecap="round" />
    <line x1="69" y1="91.95" x2="69" y2="101.95" stroke="#F5D0A9" stroke-width="5" stroke-linecap="round" />
    <ellipse cx="69" cy="102.95" rx="3.25" ry="2" fill="#D4A574" stroke="#1A1A1A" stroke-width="2" />
    <!-- Torso -->
    <path d="M50 73.5
      Q 49 79.5, 52 85.5
      Q 64 87.5, 76 85.5
      Q 79 79.5, 78 73.5 Z"
      fill="url(#bodyGrad)" stroke="#1A1A1A" stroke-width="3" />
    <!-- Pants -->
    <path d="M52 83.5
      L51 91.5
      Q 62 93.5, 64 90.5
      Q 66 93.5, 77 91.5
      L76 83.5 Z"
      fill="url(#pantsGrad)" stroke="#1A1A1A" stroke-width="3" />
    <line x1="53" y1="84.5" x2="75" y2="84.5" stroke="#3E2723" stroke-width="1.5" stroke-linecap="round" />
    <!-- Arms -->
    <line x1="49" y1="75.5" x2="45" y2="88.5" stroke="#1A1A1A" stroke-width="8" stroke-linecap="round" />
    <line x1="49" y1="75.5" x2="45" y2="88.5" stroke="#F5D0A9" stroke-width="5" stroke-linecap="round" />
    <circle cx="45" cy="88.5" r="2.5" fill="#F5D0A9" stroke="#1A1A1A" stroke-width="2" />
    <line x1="79" y1="75.5" x2="83" y2="86.5" stroke="#1A1A1A" stroke-width="8" stroke-linecap="round" />
    <line x1="79" y1="75.5" x2="83" y2="86.5" stroke="#F5D0A9" stroke-width="5" stroke-linecap="round" />
    <circle cx="83" cy="86.5" r="2.5" fill="#F5D0A9" stroke="#1A1A1A" stroke-width="2" />
    <!-- Ears -->
    <ellipse cx="30.879999999999995" cy="43.699999999999996" rx="6.4799999999999995" ry="7.775999999999999" fill="url(#headGrad)" stroke="#1A1A1A" stroke-width="3.5" />
    <ellipse cx="30.879999999999995" cy="43.699999999999996" rx="3.2399999999999998" ry="4.536" fill="#D4A574" opacity="0.3" />
    <ellipse cx="97.12" cy="43.699999999999996" rx="6.4799999999999995" ry="7.775999999999999" fill="url(#headGrad)" stroke="#1A1A1A" stroke-width="3.5" />
    <ellipse cx="97.12" cy="43.699999999999996" rx="3.2399999999999998" ry="4.536" fill="#D4A574" opacity="0.3" />
    <!-- Head -->
    <ellipse cx="64" cy="38.3" rx="36" ry="34.199999999999996" fill="url(#headGrad)" stroke="#1A1A1A" stroke-width="3.5" />
    <!-- Hair -->
    <path d="M46 11.299999999999997
      Q 56.8 5.899999999999999, 65.8 6.619999999999997
      Q 74.8 7.699999999999999, 82 13.099999999999998
      Q 74.8 9.499999999999996, 65.8 8.779999999999998
      Q 56.8 8.059999999999999, 46 11.299999999999997 Z"
      fill="url(#headGradHair)" opacity="0.4" />
    <path d="
      M65.8 14.684000000000001
      Q 49.16799999999999 11.66,
        53.70399999999999 1.0760000000000014
      Q 58.239999999999995 -7.995999999999999,
        66.556 -3.459999999999998
      Q 74.872 -8.751999999999997,
        79.408 1.8320000000000016
      Q 82.432 11.66,
        70.336 18.464
      Q 68.068 16.951999999999998,
        65.8 14.684000000000001 Z"
      fill="url(#headGradHair)" stroke="#1A1A1A" stroke-width="3.5" />
    <path d="M66.556 -3.459999999999998
      Q 66.556 1.8320000000000016,
        65.8 4.856000000000002"
      fill="none" stroke="#1A1A1A" stroke-width="1.2" stroke-linecap="round" opacity="0.4" />
    <ellipse cx="61.263999999999996" cy="2.5880000000000014" rx="3.024" ry="4.2336" fill="#4A4A4A" opacity="0.2" transform="rotate(-15 61.263999999999996 2.5880000000000014)" />
    <!-- Eyes -->
    <ellipse cx="51.1" cy="41.48" rx="6.4799999999999995" ry="7.92" fill="#1A1A1A" />
    <ellipse cx="53.368" cy="38.708" rx="1.9439999999999997" ry="2.2176" fill="#FFFFFF" />
    <ellipse cx="76.3" cy="41.48" rx="6.4799999999999995" ry="7.92" fill="#1A1A1A" />
    <ellipse cx="78.568" cy="38.708" rx="1.9439999999999997" ry="2.2176" fill="#FFFFFF" />
    <!-- Blush -->
    <ellipse cx="46.72" cy="49.81999999999999" rx="5.040000000000001" ry="3.2399999999999998" fill="#F48FB1" opacity="0.5" />
    <ellipse cx="81.28" cy="49.81999999999999" rx="5.040000000000001" ry="3.2399999999999998" fill="#F48FB1" opacity="0.5" />
    <!-- Mouth -->
    <path d="M56.08 56.3 Q 64 67.1, 71.92 56.3" fill="#1A1A1A" />
    <path d="M58.08 57.3 Q 64 64.94, 69.92 57.3" fill="#4E342E" />

</svg>