<svg xmlns="http://www.w3.org/2000/svg" viewBox="0 0 64 64" width="64" height="64" id="face_hurt">
  <defs>
    <radialGradient id="headGrad" cx="48%" cy="42%" r="58%" fx="48%" fy="42%">
      <stop offset="0%" stop-color="#FFE4C4" />
      <stop offset="50%" stop-color="#F5D0A9" />
      <stop offset="100%" stop-color="#D4A574" />
    </radialGradient>
    <radialGradient id="headGradHair" cx="45%" cy="30%" r="65%" fx="45%" fy="30%">
      <stop offset="0%" stop-color="#4A4A4A" />
      <stop offset="50%" stop-color="#2C2C2C" />
      <stop offset="100%" stop-color="#1A1A1A" />
    </radialGradient>

  </defs>
    <!-- Ears -->
    <ellipse cx="6.296" cy="39.24" rx="4.32" ry="5.94" fill="url(#headGrad)" stroke="#1A1A1A" stroke-width="3.5" />
    <ellipse cx="6.296" cy="39.24" rx="1.9440000000000002" ry="3.2670000000000003" fill="#D4A574" opacity="0.25" />
    <ellipse cx="57.704" cy="39.24" rx="4.32" ry="5.94" fill="url(#headGrad)" stroke="#1A1A1A" stroke-width="3.5" />
    <ellipse cx="57.704" cy="39.24" rx="1.9440000000000002" ry="3.2670000000000003" fill="#D4A574" opacity="0.25" />
    <!-- Head -->
    <rect x="5" y="12.239999999999998" width="54" height="47.52" rx="18.9" ry="18.9" fill="url(#headGrad)" stroke="#1A1A1A" stroke-width="3.5" />
    <!-- Hair: quả đào -->
    <path d="M18.5 15.75
      Q 26.6 11.7, 33.35 12.239999999999998
      Q 40.1 13.05, 45.5 17.1
      Q 40.1 14.399999999999999, 33.35 13.860000000000003
      Q 26.6 13.32, 18.5 15.75 Z"
      fill="url(#headGradHair)" opacity="0.4" />
    <path d="
      M33.35 18.288
      Q 20.876 16.020000000000003,
        24.278 8.082
      Q 27.68 1.2780000000000005,
        33.917 4.6800000000000015
      Q 40.154 0.7110000000000021,
        43.556 8.649000000000001
      Q 45.824 16.020000000000003,
        36.752 21.123
      Q 35.051 19.989,
        33.35 18.288 Z"
      fill="url(#headGradHair)" stroke="#1A1A1A" stroke-width="3.5" />
    <path d="M33.917 4.6800000000000015
      Q 33.917 8.649000000000001,
        33.35 10.917000000000002"
      fill="none" stroke="#1A1A1A" stroke-width="1.2" stroke-linecap="round" opacity="0.4" />
    <ellipse cx="29.948" cy="9.216000000000001" rx="2.2680000000000002" ry="3.1752000000000002" fill="#4A4A4A" opacity="0.2" transform="rotate(-15 29.948 9.216000000000001)" />
    <!-- Eyes -->
    <path d="M16.205 37.24 Q 23.09 44.24, 29.975 37.24" fill="none" stroke="#1A1A1A" stroke-width="3" stroke-linecap="round" />
    <path d="M34.02499999999999 37.24 Q 40.91 44.24, 47.795 37.24" fill="none" stroke="#1A1A1A" stroke-width="3" stroke-linecap="round" />
    <path d="M49.55 31.95 Q 50.36 37.35, 48.739999999999995 38.16" fill="#B3E5FC" stroke="#64B5F6" stroke-width="1" />
    <!-- Mouth -->
    <path d="M28.22 52.5 Q 32 47.5, 35.78 52.5" fill="none" stroke="#1A1A1A" stroke-width="2.5" stroke-linecap="round" />

</svg>