<svg xmlns="http://www.w3.org/2000/svg" viewBox="0 0 64 64" width="64" height="64" id="face_celebrate">
  <defs>
    <radialGradient id="headGrad" cx="45%" cy="35%" r="65%" fx="45%" fy="35%">
      <stop offset="0%" stop-color="#FFE4C4" />
      <stop offset="50%" stop-color="#F5D0A9" />
      <stop offset="100%" stop-color="#D4A574" />
    </radialGradient>
    <radialGradient id="headGradHair" cx="45%" cy="30%" r="65%" fx="45%" fy="30%">
      <stop offset="0%" stop-color="#4A4A4A" />
      <stop offset="50%" stop-color="#2C2C2C" />
      <stop offset="100%" stop-color="#1A1A1A" />
    </radialGradient>

  </defs>
    <!-- Head -->
    <ellipse cx="32" cy="34" rx="26" ry="24.7" fill="url(#headGrad)" stroke="#2C1810" stroke-width="2.5" stroke-linecap="round" stroke-linejoin="round" />
    <!-- Hair: quả đào chú tiểu -->
    <path d="M20.299999999999997 13.719999999999999
      Q 26.8 10.079999999999998, 33.3 10.599999999999998
      Q 39.8 11.120000000000001, 43.7 15.280000000000001
      Q 39.8 12.68, 33.3 12.68
      Q 26.8 12.16, 20.299999999999997 13.719999999999999 Z"
      fill="url(#headGradHair)" opacity="0.5" />
    <path d="
      M33.3 16.06
      Q 19.571999999999996 14.187999999999999,
        22.691999999999997 4.827999999999999
      Q 26.435999999999996 -2.66,
        33.924 0.4599999999999991
      Q 41.412 -3.2840000000000025,
        45.156 5.451999999999999
      Q 47.651999999999994 13.564,
        37.668 19.18
      Q 35.172 17.932000000000002,
        33.3 16.06 Z"
      fill="url(#headGradHair)" stroke="#2C1810" stroke-width="2.5" stroke-linecap="round" stroke-linejoin="round" />
    <path d="M33.924 0.4599999999999991
      Q 33.924 4.203999999999999,
        33.3 7.324"
      fill="none" stroke="#1A1A1A" stroke-width="1.2" stroke-linecap="round" opacity="0.5" />
    <ellipse cx="30.179999999999996" cy="6.699999999999999" rx="2.7456" ry="3.7439999999999998" fill="#4A4A4A" opacity="0.25" transform="rotate(-15 30.179999999999996 6.699999999999999)" />
    <!-- Eyes -->
    <ellipse cx="23.68" cy="35.3" rx="6.75" ry="7.5" fill="#1A1A1A" />
    <path d="M23.68 31.799999999999997 L24.73 34.25 L27.18 35.3
      L24.73 36.349999999999994 L23.68 38.8
      L22.63 36.349999999999994 L20.18 35.3
      L22.63 34.25 Z" fill="#FFD54F" opacity="0.9" />
    <ellipse cx="25.68" cy="32.8" rx="1.5" ry="1.8" fill="#FFFFFF" />
    <ellipse cx="40.32" cy="35.3" rx="6.75" ry="7.5" fill="#1A1A1A" />
    <path d="M40.32 31.799999999999997 L41.37 34.25 L43.82 35.3
      L41.37 36.349999999999994 L40.32 38.8
      L39.27 36.349999999999994 L36.82 35.3
      L39.27 34.25 Z" fill="#FFD54F" opacity="0.9" />
    <ellipse cx="42.32" cy="32.8" rx="1.5" ry="1.8" fill="#FFFFFF" />
    <!-- Mouth -->
    <path d="M27 43.88 Q 32 49.88, 37 43.88" fill="none" stroke="#2C1810" stroke-width="2" stroke-linecap="round" />
    <!-- Blush -->
    <ellipse cx="20.299999999999997" cy="40.5" rx="5" ry="3.5" fill="#FFB6C1" opacity="0.45" />
    <ellipse cx="43.7" cy="40.5" rx="5" ry="3.5" fill="#FFB6C1" opacity="0.45" />
    <!-- Sparkles -->
    <path d="M16.4 17 L17.599999999999998 19.8 L20.4 21
      L17.599999999999998 22.2 L16.4 25
      L15.2 22.2 L12.399999999999999 21
      L15.2 19.8 Z" fill="#FFD54F" opacity="0.9" />
    <path d="M50.2 20.6 L51.1 22.700000000000003 L53.2 23.6
      L51.1 24.5 L50.2 26.6
      L49.300000000000004 24.5 L47.2 23.6
      L49.300000000000004 22.700000000000003 Z" fill="#FFD54F" opacity="0.9" />

</svg>