<svg xmlns="http://www.w3.org/2000/svg" viewBox="0 0 64 64" width="64" height="64" id="face_hurt">
  <defs>
    <radialGradient id="headGrad" cx="48%" cy="42%" r="58%" fx="48%" fy="42%">
      <stop offset="0%" stop-color="#FFE4C4" />
      <stop offset="50%" stop-color="#F5D0A9" />
      <stop offset="100%" stop-color="#D4A574" />
    </radialGradient>
    <radialGradient id="headGradHair" cx="55%" cy="30%" r="60%" fx="55%" fy="30%">
      <stop offset="0%" stop-color="#B0B0B0" />
      <stop offset="50%" stop-color="#808080" />
      <stop offset="100%" stop-color="#606060" />
    </radialGradient>

  </defs>
    <!-- Ears -->
    <ellipse cx="6.296" cy="39.24" rx="4.32" ry="5.94" fill="url(#headGrad)" stroke="#1A1A1A" stroke-width="3.5" />
    <ellipse cx="6.296" cy="39.24" rx="1.9440000000000002" ry="3.2670000000000003" fill="#D4A574" opacity="0.25" />
    <ellipse cx="57.704" cy="39.24" rx="4.32" ry="5.94" fill="url(#headGrad)" stroke="#1A1A1A" stroke-width="3.5" />
    <ellipse cx="57.704" cy="39.24" rx="1.9440000000000002" ry="3.2670000000000003" fill="#D4A574" opacity="0.25" />
    <!-- Head -->
    <ellipse cx="32" cy="36" rx="27" ry="25.919999999999998" fill="url(#headGrad)" stroke="#1A1A1A" stroke-width="3.5" />
    <!-- Hair cap -->
    <path d="
      M6 31.95
      Q 5 22.5, 13.100000000000001 12.239999999999998
      Q 23.9 7.649999999999999, 32 9.54
      Q 40.1 7.649999999999999, 50.9 12.239999999999998
      Q 59 22.5, 58 31.95
      Z"
      fill="url(#headGradHair)" stroke="#1A1A1A" stroke-width="3.5" />
    <ellipse cx="37.4" cy="17.1" rx="4.05" ry="4.05" fill="#FFFFFF" opacity="0.55" />
    <!-- Eyes -->
    <path d="M16.205 37.24 Q 23.09 44.24, 29.975 37.24" fill="none" stroke="#1A1A1A" stroke-width="3" stroke-linecap="round" />
    <path d="M34.02499999999999 37.24 Q 40.91 44.24, 47.795 37.24" fill="none" stroke="#1A1A1A" stroke-width="3" stroke-linecap="round" />
    <path d="M49.55 31.95 Q 50.36 37.35, 48.739999999999995 38.16" fill="#B3E5FC" stroke="#64B5F6" stroke-width="1" />
    <!-- Blush -->
    <ellipse cx="18.5" cy="45.45" rx="3.7800000000000002" ry="2.16" fill="#F48FB1" opacity="0.55" />
    <ellipse cx="45.5" cy="45.45" rx="3.7800000000000002" ry="2.16" fill="#F48FB1" opacity="0.55" />
    <!-- Mouth -->
    <path d="M28.22 52.5 Q 32 47.5, 35.78 52.5" fill="none" stroke="#1A1A1A" stroke-width="2.5" stroke-linecap="round" />

</svg>