<svg xmlns="http://www.w3.org/2000/svg" viewBox="0 0 128 128" width="128" height="128" id="hero_f1">
  <defs>
    <filter id="blur"><feGaussianBlur stdDeviation="4" /></filter>
    <linearGradient id="bodyGrad" x1="0%" y1="0%" x2="0%" y2="100%">
      <stop offset="0%" stop-color="#FFE4C4" />
      <stop offset="50%" stop-color="#F5D0A9" />
      <stop offset="100%" stop-color="#D4A574" />
    </linearGradient>
    <linearGradient id="pantsGrad" x1="0%" y1="0%" x2="0%" y2="100%">
      <stop offset="0%" stop-color="#795548" />
      <stop offset="50%" stop-color="#5D4037" />
      <stop offset="100%" stop-color="#3E2723" />
    </linearGradient>
    <radialGradient id="headGrad" cx="45%" cy="35%" r="65%" fx="45%" fy="35%">
      <stop offset="0%" stop-color="#FFE4C4" />
      <stop offset="50%" stop-color="#F5D0A9" />
      <stop offset="100%" stop-color="#D4A574" />
    </radialGradient>
    <radialGradient id="headGradHair" cx="45%" cy="30%" r="65%" fx="45%" fy="30%">
      <stop offset="0%" stop-color="#4A4A4A" />
      <stop offset="50%" stop-color="#2C2C2C" />
      <stop offset="100%" stop-color="#1A1A1A" />
    </radialGradient>

  </defs>
    <ellipse cx="64" cy="108" rx="18" ry="5" fill="#000000" opacity="0.12" />
    <!-- Legs -->
    <line x1="58" y1="84.25" x2="58" y2="98.25"
        stroke="#2C1810" stroke-width="8.5" stroke-linecap="round" />
    <line x1="58" y1="84.25" x2="58" y2="98.25"
        stroke="#F5D0A9" stroke-width="6" stroke-linecap="round" />
    <ellipse cx="58" cy="99.25" rx="4.199999999999999" ry="2.7" fill="#D4A574" stroke="#2C1810" stroke-width="1.8" />
    <line x1="70" y1="84.25" x2="70" y2="98.25"
        stroke="#2C1810" stroke-width="8.5" stroke-linecap="round" />
    <line x1="70" y1="84.25" x2="70" y2="98.25"
        stroke="#F5D0A9" stroke-width="6" stroke-linecap="round" />
    <ellipse cx="70" cy="99.25" rx="4.199999999999999" ry="2.7" fill="#D4A574" stroke="#2C1810" stroke-width="1.8" />
    <!-- Torso -->
    <path d="M55 59.5
      Q 53 67.5, 56 75.5
      Q 64 79.5, 72 75.5
      Q 75 67.5, 73 59.5 Z"
      fill="url(#bodyGrad)" stroke="#2C1810" stroke-width="2" stroke-linecap="round" stroke-linejoin="round" />
    <circle cx="60" cy="65.5" r="0.8" fill="#D4A574" opacity="0.4" />
    <circle cx="68" cy="65.5" r="0.8" fill="#D4A574" opacity="0.4" />
    <!-- Pants -->
    <path d="M56 73.5
      L55 83.5
      Q 61 85.5, 64 82.5
      Q 67 85.5, 73 83.5
      L72 73.5 Z"
      fill="url(#pantsGrad)" stroke="#2C1810" stroke-width="2" stroke-linecap="round" stroke-linejoin="round" />
    <line x1="57" y1="74.5" x2="71" y2="74.5" stroke="#3E2723" stroke-width="1.5" stroke-linecap="round" />
    <!-- Arms -->
    <line x1="46" y1="62.5" x2="41" y2="80" stroke="#2C1810" stroke-width="8.5" stroke-linecap="round" />
    <line x1="46" y1="62.5" x2="41" y2="80" stroke="#F5D0A9" stroke-width="6" stroke-linecap="round" />
    <circle cx="41" cy="80" r="3.3000000000000003" fill="#F5D0A9" stroke="#2C1810" stroke-width="2" />
    <line x1="82" y1="62.5" x2="87" y2="77" stroke="#2C1810" stroke-width="8.5" stroke-linecap="round" />
    <line x1="82" y1="62.5" x2="87" y2="77" stroke="#F5D0A9" stroke-width="6" stroke-linecap="round" />
    <circle cx="87" cy="77" r="3.3000000000000003" fill="#F5D0A9" stroke="#2C1810" stroke-width="2" />
    <!-- Head -->
    <ellipse cx="64" cy="34.45" rx="26" ry="24.7" fill="url(#headGrad)" stroke="#2C1810" stroke-width="2.5" stroke-linecap="round" stroke-linejoin="round" />
    <!-- Hair: quả đào chú tiểu -->
    <path d="M52.3 14.170000000000002
      Q 58.8 10.530000000000001, 65.3 11.05
      Q 71.8 11.570000000000004, 75.7 15.730000000000004
      Q 71.8 13.130000000000003, 65.3 13.130000000000003
      Q 58.8 12.610000000000003, 52.3 14.170000000000002 Z"
      fill="url(#headGradHair)" opacity="0.5" />
    <path d="
      M65.3 16.51
      Q 51.571999999999996 14.638000000000002,
        54.69199999999999 5.278000000000002
      Q 58.43599999999999 -2.2099999999999973,
        65.92399999999999 0.9100000000000019
      Q 73.41199999999999 -2.8339999999999996,
        77.15599999999999 5.902000000000002
      Q 79.652 14.014000000000003,
        69.66799999999999 19.630000000000003
      Q 67.172 18.382000000000005,
        65.3 16.51 Z"
      fill="url(#headGradHair)" stroke="#2C1810" stroke-width="2.5" stroke-linecap="round" stroke-linejoin="round" />
    <path d="M65.92399999999999 0.9100000000000019
      Q 65.92399999999999 4.654000000000002,
        65.3 7.774000000000003"
      fill="none" stroke="#1A1A1A" stroke-width="1.2" stroke-linecap="round" opacity="0.5" />
    <ellipse cx="62.18" cy="7.150000000000002" rx="2.7456" ry="3.7439999999999998" fill="#4A4A4A" opacity="0.25" transform="rotate(-15 62.18 7.150000000000002)" />
    <!-- Eyes -->
    <ellipse cx="55.18" cy="36.25" rx="6.375" ry="7.5" fill="#3E2723" />
    <ellipse cx="57.18" cy="33.75" rx="2" ry="2.2" fill="#FFFFFF" />
    <ellipse cx="71.82" cy="36.25" rx="6.375" ry="7.5" fill="#3E2723" />
    <ellipse cx="73.82" cy="33.75" rx="2" ry="2.2" fill="#FFFFFF" />
    <!-- Mouth -->
    <path d="M59 44.330000000000005 Q 64 50.330000000000005, 69 44.330000000000005" fill="none" stroke="#2C1810" stroke-width="2" stroke-linecap="round" />
    <!-- Blush -->
    <ellipse cx="52.3" cy="40.95" rx="5" ry="3.5" fill="#FFB6C1" opacity="0.45" />
    <ellipse cx="75.7" cy="40.95" rx="5" ry="3.5" fill="#FFB6C1" opacity="0.45" />

</svg>