<svg xmlns="http://www.w3.org/2000/svg" viewBox="0 0 64 64" width="64" height="64" id="face_happy">
  <defs>
    <radialGradient id="headGrad" cx="45%" cy="35%" r="65%" fx="45%" fy="35%">
      <stop offset="0%" stop-color="#FFE4C4" />
      <stop offset="50%" stop-color="#F5D0A9" />
      <stop offset="100%" stop-color="#D4A574" />
    </radialGradient>
    <radialGradient id="headGradHair" cx="45%" cy="30%" r="65%" fx="45%" fy="30%">
      <stop offset="0%" stop-color="#4A4A4A" />
      <stop offset="50%" stop-color="#2C2C2C" />
      <stop offset="100%" stop-color="#1A1A1A" />
    </radialGradient>

  </defs>
    <!-- Head -->
    <ellipse cx="32" cy="34" rx="26" ry="24.7" fill="url(#headGrad)" stroke="#2C1810" stroke-width="2.5" stroke-linecap="round" stroke-linejoin="round" />
    <!-- Hair: quả đào chú tiểu -->
    <path d="M20.299999999999997 13.719999999999999
      Q 26.8 10.079999999999998, 33.3 10.599999999999998
      Q 39.8 11.120000000000001, 43.7 15.280000000000001
      Q 39.8 12.68, 33.3 12.68
      Q 26.8 12.16, 20.299999999999997 13.719999999999999 Z"
      fill="url(#headGradHair)" opacity="0.5" />
    <path d="
      M33.3 16.06
      Q 19.571999999999996 14.187999999999999,
        22.691999999999997 4.827999999999999
      Q 26.435999999999996 -2.66,
        33.924 0.4599999999999991
      Q 41.412 -3.2840000000000025,
        45.156 5.451999999999999
      Q 47.651999999999994 13.564,
        37.668 19.18
      Q 35.172 17.932000000000002,
        33.3 16.06 Z"
      fill="url(#headGradHair)" stroke="#2C1810" stroke-width="2.5" stroke-linecap="round" stroke-linejoin="round" />
    <path d="M33.924 0.4599999999999991
      Q 33.924 4.203999999999999,
        33.3 7.324"
      fill="none" stroke="#1A1A1A" stroke-width="1.2" stroke-linecap="round" opacity="0.5" />
    <ellipse cx="30.179999999999996" cy="6.699999999999999" rx="2.7456" ry="3.7439999999999998" fill="#4A4A4A" opacity="0.25" transform="rotate(-15 30.179999999999996 6.699999999999999)" />
    <!-- Eyes -->
    <ellipse cx="23.18" cy="35.8" rx="5.1" ry="6" fill="#3E2723" />
    <ellipse cx="25.18" cy="33.3" rx="2" ry="2.2" fill="#FFFFFF" />
    <ellipse cx="39.82" cy="35.8" rx="5.1" ry="6" fill="#3E2723" />
    <ellipse cx="41.82" cy="33.3" rx="2" ry="2.2" fill="#FFFFFF" />
    <!-- Mouth -->
    <path d="M28 43.88 Q 32 49.88, 36 43.88" fill="#E57373" stroke="#2C1810" stroke-width="1.5" stroke-linecap="round" />
    <!-- Blush -->
    <ellipse cx="20.299999999999997" cy="40.5" rx="5" ry="3.5" fill="#FFB6C1" opacity="0.45" />
    <ellipse cx="43.7" cy="40.5" rx="5" ry="3.5" fill="#FFB6C1" opacity="0.45" />

</svg>