<svg xmlns="http://www.w3.org/2000/svg" viewBox="0 0 128 128" width="128" height="128" id="hero_f1">
  <defs>
    <filter id="blur"><feGaussianBlur stdDeviation="4" /></filter>
    <linearGradient id="bodyGrad" x1="0%" y1="0%" x2="0%" y2="100%">
      <stop offset="0%" stop-color="#FFE4C4" />
      <stop offset="50%" stop-color="#F5D0A9" />
      <stop offset="100%" stop-color="#D4A574" />
    </linearGradient>
    <linearGradient id="pantsGrad" x1="0%" y1="0%" x2="0%" y2="100%">
      <stop offset="0%" stop-color="#795548" />
      <stop offset="50%" stop-color="#5D4037" />
      <stop offset="100%" stop-color="#3E2723" />
    </linearGradient>
    <radialGradient id="headGrad" cx="48%" cy="42%" r="58%" fx="48%" fy="42%">
      <stop offset="0%" stop-color="#FFE4C4" />
      <stop offset="50%" stop-color="#F5D0A9" />
      <stop offset="100%" stop-color="#D4A574" />
    </radialGradient>
    <radialGradient id="headGradHair" cx="45%" cy="30%" r="65%" fx="45%" fy="30%">
      <stop offset="0%" stop-color="#4A4A4A" />
      <stop offset="50%" stop-color="#2C2C2C" />
      <stop offset="100%" stop-color="#1A1A1A" />
    </radialGradient>

  </defs>
    <ellipse cx="64" cy="120" rx="16" ry="4" fill="#000000" opacity="0.12" />
    <!-- Legs -->
    <line x1="59" y1="99.95" x2="59" y2="107.95" stroke="#1A1A1A" stroke-width="8" stroke-linecap="round" />
    <line x1="59" y1="99.95" x2="59" y2="107.95" stroke="#F5D0A9" stroke-width="5" stroke-linecap="round" />
    <ellipse cx="59" cy="108.95" rx="3" ry="1.75" fill="#D4A574" stroke="#1A1A1A" stroke-width="1.8" />
    <line x1="69" y1="99.95" x2="69" y2="107.95" stroke="#1A1A1A" stroke-width="8" stroke-linecap="round" />
    <line x1="69" y1="99.95" x2="69" y2="107.95" stroke="#F5D0A9" stroke-width="5" stroke-linecap="round" />
    <ellipse cx="69" cy="108.95" rx="3" ry="1.75" fill="#D4A574" stroke="#1A1A1A" stroke-width="1.8" />
    <!-- Torso -->
    <path d="
      M49 75.5
      Q 47 82.5, 50 89.5
      Q 64 92.5, 78 89.5
      Q 81 82.5, 79 75.5
      Z"
      fill="url(#bodyGrad)" stroke="#1A1A1A" stroke-width="3" />
    <!-- Pants -->
    <path d="
      M50 87.5
      L49 97.5
      Q 62 99.5, 64 96.5
      Q 66 99.5, 79 97.5
      L78 87.5
      Z"
      fill="url(#pantsGrad)" stroke="#1A1A1A" stroke-width="3" />
    <line x1="51" y1="88.5" x2="77" y2="88.5" stroke="#3E2723" stroke-width="1.5" stroke-linecap="round" />
    <!-- Arms -->
    <line x1="47" y1="78.5" x2="44" y2="89.5" stroke="#1A1A1A" stroke-width="8" stroke-linecap="round" />
    <line x1="47" y1="78.5" x2="44" y2="89.5" stroke="#F5D0A9" stroke-width="5" stroke-linecap="round" />
    <circle cx="44" cy="89.5" r="2.25" fill="#F5D0A9" stroke="#1A1A1A" stroke-width="2" />
    <line x1="81" y1="78.5" x2="84" y2="87.5" stroke="#1A1A1A" stroke-width="8" stroke-linecap="round" />
    <line x1="81" y1="78.5" x2="84" y2="87.5" stroke="#F5D0A9" stroke-width="5" stroke-linecap="round" />
    <circle cx="84" cy="87.5" r="2.25" fill="#F5D0A9" stroke="#1A1A1A" stroke-width="2" />
    <!-- Ears -->
    <ellipse cx="27.823999999999998" cy="44.86" rx="6.08" ry="8.36" fill="url(#headGrad)" stroke="#1A1A1A" stroke-width="3.5" />
    <ellipse cx="27.823999999999998" cy="44.86" rx="2.736" ry="4.598" fill="#D4A574" opacity="0.25" />
    <ellipse cx="100.176" cy="44.86" rx="6.08" ry="8.36" fill="url(#headGrad)" stroke="#1A1A1A" stroke-width="3.5" />
    <ellipse cx="100.176" cy="44.86" rx="2.736" ry="4.598" fill="#D4A574" opacity="0.25" />
    <!-- Head -->
    <rect x="26" y="6.859999999999999" width="76" height="66.88" rx="26.599999999999998" ry="26.599999999999998" fill="url(#headGrad)" stroke="#1A1A1A" stroke-width="3.5" />
    <!-- Hair: quả đào -->
    <path d="M45 11.799999999999997
      Q 56.4 6.099999999999994, 65.9 6.859999999999999
      Q 75.4 8, 83 13.7
      Q 75.4 9.899999999999995, 65.9 9.14
      Q 56.4 8.379999999999999, 45 11.799999999999997 Z"
      fill="url(#headGradHair)" opacity="0.4" />
    <path d="
      M65.9 15.371999999999995
      Q 48.34400000000001 12.179999999999996,
        53.132000000000005 1.0079999999999956
      Q 57.92000000000001 -8.568000000000005,
        66.69800000000001 -3.780000000000004
      Q 75.476 -9.366000000000003,
        80.26400000000001 1.805999999999996
      Q 83.456 12.179999999999996,
        70.688 19.361999999999995
      Q 68.29400000000001 17.765999999999995,
        65.9 15.371999999999995 Z"
      fill="url(#headGradHair)" stroke="#1A1A1A" stroke-width="3.5" />
    <path d="M66.69800000000001 -3.780000000000004
      Q 66.69800000000001 1.805999999999996,
        65.9 4.997999999999996"
      fill="none" stroke="#1A1A1A" stroke-width="1.2" stroke-linecap="round" opacity="0.4" />
    <ellipse cx="61.11200000000001" cy="2.6039999999999957" rx="3.192" ry="4.4688" fill="#4A4A4A" opacity="0.2" transform="rotate(-15 61.11200000000001 2.6039999999999957)" />
    <!-- Eyes -->
    <ellipse cx="51.46" cy="44.86" rx="6.460000000000001" ry="7.6000000000000005" fill="#1A1A1A" />
    <ellipse cx="53.398" cy="42.428" rx="2.0672" ry="2.1280000000000006" fill="#FFFFFF" />
    <ellipse cx="76.54" cy="44.86" rx="6.460000000000001" ry="7.6000000000000005" fill="#1A1A1A" />
    <ellipse cx="78.47800000000001" cy="42.428" rx="2.0672" ry="2.1280000000000006" fill="#FFFFFF" />
    <!-- Mouth -->
    <path d="M53.36 59.3 Q 64 77.692, 74.64 59.3 Z" fill="#1A1A1A" />
    <path d="M55.36 60.3 Q 64 76.02, 72.64 60.3 Z" fill="#B71C1C" />
    <path d="M56.36 60.3 Q 64 65.152, 71.64 60.3 Z" fill="#FFFFFF" />
    <ellipse cx="64" cy="71.00399999999999" rx="5.32" ry="3.762" fill="#E57373" />

</svg>