<svg xmlns="http://www.w3.org/2000/svg" viewBox="0 0 64 64" width="64" height="64" id="face_happy">
  <defs>
    <radialGradient id="headGrad" cx="45%" cy="35%" r="65%" fx="45%" fy="35%">
      <stop offset="0%" stop-color="#FFE4C4" />
      <stop offset="50%" stop-color="#F5D0A9" />
      <stop offset="100%" stop-color="#D4A574" />
    </radialGradient>
    <radialGradient id="headGradHair" cx="50%" cy="30%" r="70%" fx="50%" fy="30%">
      <stop offset="0%" stop-color="#4A4A4A" />
      <stop offset="50%" stop-color="#2C2C2C" />
      <stop offset="100%" stop-color="#1A1A1A" />
    </radialGradient>

  </defs>
    <!-- Head -->
    <ellipse cx="32" cy="34" rx="26" ry="24.7" fill="url(#headGrad)" stroke="#2C1810" stroke-width="2.5" stroke-linecap="round" stroke-linejoin="round" />
    <!-- Hair -->
    <path d="M13.8 21
      Q 24.2 -1.1000000000000014, 32 4.100000000000001
      Q 35.9 -2.3999999999999986, 34.6 -5
      Q 41.1 0.19999999999999574, 45 5.399999999999999
      Q 50.2 15.8, 51.5 26.2
      Q 45 14.5, 32 11.900000000000002
      Q 19 15.8, 13.8 21 Z"
      fill="url(#headGradHair)" stroke="#2C1810" stroke-width="2" stroke-linecap="round" stroke-linejoin="round" />
    <path d="M28.1 13.2
      Q 33.3 -6.300000000000004, 35.9 -7.600000000000001
      Q 37.2 0.19999999999999574, 34.6 13.2"
      fill="url(#headGradHair)" stroke="#2C1810" stroke-width="2" stroke-linecap="round" stroke-linejoin="round" />
    <!-- Eyes -->
    <path d="M18.68 36.3 Q 23.68 30.299999999999997, 28.68 36.3" fill="none" stroke="#2C1810" stroke-width="2.5" stroke-linecap="round" />
    <path d="M35.32 36.3 Q 40.32 30.299999999999997, 45.32 36.3" fill="none" stroke="#2C1810" stroke-width="2.5" stroke-linecap="round" />
    <!-- Mouth -->
    <path d="M28 43.88 Q 32 49.88, 36 43.88" fill="#E57373" stroke="#2C1810" stroke-width="1.5" stroke-linecap="round" />
    <!-- Blush -->
    <ellipse cx="20.299999999999997" cy="40.5" rx="5" ry="3.5" fill="#FFB6C1" opacity="0.45" />
    <ellipse cx="43.7" cy="40.5" rx="5" ry="3.5" fill="#FFB6C1" opacity="0.45" />

</svg>